<svg width="22" height="23" viewBox="0 0 22 23" fill="none" xmlns="http://www.w3.org/2000/svg">
<path d="M11 22.5C10.7348 22.5 10.4804 22.3946 10.2929 22.2071C10.1054 22.0196 10 21.7652 10 21.5V18.5H6C5.46957 18.5 4.96086 18.2893 4.58579 17.9142C4.21071 17.5391 4 17.0304 4 16.5V6.5C4 5.96957 4.21071 5.46086 4.58579 5.08579C4.96086 4.71071 5.46957 4.5 6 4.5H20C20.5304 4.5 21.0391 4.71071 21.4142 5.08579C21.7893 5.46086 22 5.96957 22 6.5V16.5C22 17.0304 21.7893 17.5391 21.4142 17.9142C21.0391 18.2893 20.5304 18.5 20 18.5H15.9L12.2 22.21C12 22.39 11.76 22.5 11.5 22.5H11ZM12 16.5V19.58L15.08 16.5H20V6.5H6V16.5H12ZM2 14.5H0V2.5C0 1.96957 0.210714 1.46086 0.585786 1.08579C0.960859 0.710714 1.46957 0.5 2 0.5H18V2.5H2V14.5ZM8 8.5H18V10.5H8V8.5ZM8 12.5H16V14.5H8V12.5Z" fill="#757575"/>
</svg>
