<svg width="18" height="22" viewBox="0 0 18 22" fill="none" xmlns="http://www.w3.org/2000/svg">
<path d="M9 19.5C7.14348 19.5 5.36301 18.7625 4.05025 17.4497C2.7375 16.137 2 14.3565 2 12.5C2 10.6435 2.7375 8.86301 4.05025 7.55025C5.36301 6.2375 7.14348 5.5 9 5.5C10.8565 5.5 12.637 6.2375 13.9497 7.55025C15.2625 8.86301 16 10.6435 16 12.5C16 14.3565 15.2625 16.137 13.9497 17.4497C12.637 18.7625 10.8565 19.5 9 19.5ZM16.03 6.89L17.45 5.47C17 4.96 16.55 4.5 16.04 4.06L14.62 5.5C13.07 4.24 11.12 3.5 9 3.5C6.61305 3.5 4.32387 4.44821 2.63604 6.13604C0.948211 7.82387 0 10.1131 0 12.5C0 14.8869 0.948211 17.1761 2.63604 18.864C4.32387 20.5518 6.61305 21.5 9 21.5C14 21.5 18 17.47 18 12.5C18 10.38 17.26 8.43 16.03 6.89ZM8 13.5H10V7.5H8V13.5ZM12 0.5H6V2.5H12V0.5Z" fill="#757575"/>
</svg>
